<svg width="781" height="171" viewBox="0 0 781 171" fill="none" xmlns="http://www.w3.org/2000/svg">
<path d="M52.9231 21.6035C76.7138 21.6035 96 40.8646 96 64.6243C96 83.1461 84.279 98.9315 67.8413 104.992L96 139.604H12.3077C5.51034 139.604 0 134.1 0 127.312V33.8952C0 27.1067 5.51034 21.6035 12.3077 21.6035H52.9231Z" fill="white"/>
<circle cx="18" cy="18" r="18" transform="matrix(-1 0 0 1 67 40.6035)" fill="black"/>
<circle cx="9" cy="9" r="9" transform="matrix(-1 0 0 1 58 49.6035)" fill="white"/>
<path d="M161.995 138V55.3362H178.025L179.597 68.3801H180.697C181.745 65.7609 183.002 63.3512 184.469 61.151C186.04 58.846 188.031 57.0125 190.441 55.6505C192.85 54.1837 195.784 53.4504 199.241 53.4504C200.918 53.4504 202.437 53.6075 203.799 53.9218C205.266 54.2361 206.366 54.5504 207.099 54.8648V72.9376H201.284C198.036 72.9376 195.155 73.4091 192.641 74.352C190.126 75.1902 187.978 76.5522 186.197 78.4381C184.521 80.3239 183.264 82.6813 182.426 85.5101C181.587 88.3389 181.168 91.6391 181.168 95.4109V138H161.995ZM238.615 139.886C236.31 139.886 233.638 139.572 230.6 138.943C227.666 138.419 224.785 137.371 221.956 135.8C219.232 134.228 216.98 131.923 215.199 128.885C213.418 125.742 212.527 121.656 212.527 116.627C212.527 110.969 213.784 106.307 216.299 102.64C218.813 98.8683 222.323 95.9347 226.828 93.8393C231.438 91.6391 236.886 90.12 243.172 89.2818C249.563 88.3389 256.531 87.8674 264.074 87.8674V81.1097C264.074 78.7 263.707 76.5522 262.974 74.6663C262.241 72.7805 260.878 71.3137 258.888 70.266C257.002 69.1135 254.121 68.5373 250.244 68.5373C246.368 68.5373 243.329 69.0087 241.129 69.9517C238.929 70.8946 237.41 72.0471 236.572 73.4091C235.734 74.7711 235.315 76.1855 235.315 77.6523V79.8525H216.77C216.665 79.3286 216.613 78.8048 216.613 78.2809C216.613 77.7571 216.613 77.1285 216.613 76.3951C216.613 71.6804 218.027 67.5944 220.856 64.1369C223.685 60.6795 227.614 58.0603 232.643 56.2792C237.672 54.3933 243.487 53.4504 250.087 53.4504C257.631 53.4504 263.812 54.4981 268.632 56.5935C273.556 58.6889 277.223 61.6748 279.632 65.5513C282.042 69.4278 283.247 74.1425 283.247 79.6953V118.67C283.247 120.661 283.823 122.075 284.976 122.913C286.128 123.751 287.385 124.17 288.747 124.17H293.776V137.371C292.729 137.79 291.209 138.262 289.219 138.786C287.228 139.414 284.766 139.729 281.833 139.729C279.109 139.729 276.646 139.257 274.446 138.314C272.351 137.476 270.57 136.219 269.103 134.543C267.636 132.866 266.588 130.876 265.96 128.571H265.017C263.236 130.771 261.088 132.761 258.574 134.543C256.164 136.219 253.283 137.529 249.93 138.471C246.682 139.414 242.91 139.886 238.615 139.886ZM244.43 124.17C247.573 124.17 250.349 123.699 252.759 122.756C255.273 121.813 257.316 120.503 258.888 118.827C260.564 117.151 261.821 115.108 262.66 112.698C263.603 110.288 264.074 107.669 264.074 104.84V101.068C258.312 101.068 252.968 101.435 248.044 102.169C243.225 102.902 239.348 104.264 236.415 106.255C233.586 108.245 232.171 111.074 232.171 114.741C232.171 116.627 232.591 118.303 233.429 119.77C234.372 121.132 235.734 122.232 237.515 123.07C239.401 123.804 241.706 124.17 244.43 124.17ZM333.484 139.886C326.779 139.886 320.964 138.367 316.04 135.328C311.115 132.29 307.291 127.575 304.567 121.184C301.948 114.793 300.638 106.569 300.638 96.511C300.638 86.5578 302 78.4381 304.724 72.1519C307.448 65.7609 311.22 61.0462 316.04 58.0079C320.859 54.9695 326.307 53.4504 332.384 53.4504C336.156 53.4504 339.613 53.8694 342.756 54.7076C345.899 55.5458 348.676 56.8554 351.085 58.6365C353.495 60.3128 355.538 62.4082 357.214 64.9227H358.157V24.3766H377.33V138H361.458L359.886 126.999H358.786C356.167 131.295 352.604 134.543 348.099 136.743C343.699 138.838 338.827 139.886 333.484 139.886ZM339.456 123.385C343.856 123.385 347.418 122.389 350.142 120.399C352.866 118.408 354.857 115.527 356.114 111.755C357.476 107.983 358.157 103.373 358.157 97.9254V95.8823C358.157 91.7963 357.791 88.1293 357.057 84.8815C356.324 81.6336 355.171 78.9095 353.6 76.7094C352.133 74.5092 350.195 72.8329 347.785 71.6804C345.48 70.5279 342.704 69.9517 339.456 69.9517C334.741 69.9517 330.969 70.8946 328.141 72.7805C325.417 74.5616 323.426 77.3904 322.169 81.2669C321.016 85.0386 320.44 89.858 320.44 95.7252V97.9254C320.44 103.688 321.016 108.455 322.169 112.227C323.426 115.998 325.417 118.827 328.141 120.713C330.969 122.494 334.741 123.385 339.456 123.385ZM426.488 139.886C419.783 139.886 413.968 138.367 409.044 135.328C404.12 132.29 400.295 127.575 397.571 121.184C394.952 114.793 393.643 106.569 393.643 96.511C393.643 86.5578 395.005 78.4381 397.729 72.1519C400.453 65.7609 404.224 61.0462 409.044 58.0079C413.863 54.9695 419.311 53.4504 425.388 53.4504C429.16 53.4504 432.617 53.8694 435.76 54.7076C438.903 55.5458 441.68 56.8554 444.089 58.6365C446.499 60.3128 448.542 62.4082 450.218 64.9227H451.161V24.3766H470.334V138H454.462L452.89 126.999H451.79C449.171 131.295 445.609 134.543 441.103 136.743C436.703 138.838 431.831 139.886 426.488 139.886ZM432.46 123.385C436.86 123.385 440.422 122.389 443.146 120.399C445.871 118.408 447.861 115.527 449.118 111.755C450.48 107.983 451.161 103.373 451.161 97.9254V95.8823C451.161 91.7963 450.795 88.1293 450.061 84.8815C449.328 81.6336 448.175 78.9095 446.604 76.7094C445.137 74.5092 443.199 72.8329 440.789 71.6804C438.484 70.5279 435.708 69.9517 432.46 69.9517C427.745 69.9517 423.974 70.8946 421.145 72.7805C418.421 74.5616 416.43 77.3904 415.173 81.2669C414.02 85.0386 413.444 89.858 413.444 95.7252V97.9254C413.444 103.688 414.02 108.455 415.173 112.227C416.43 115.998 418.421 118.827 421.145 120.713C423.974 122.494 427.745 123.385 432.46 123.385ZM490.733 42.6066V24.3766H509.906V42.6066H490.733ZM490.733 138V55.3362H509.906V138H490.733ZM551.544 138L520.899 55.3362H541.015L554.373 92.5821C555.002 94.3632 555.735 96.7729 556.573 99.8112C557.516 102.745 558.459 105.836 559.402 109.083C560.345 112.227 561.131 115.108 561.76 117.727H562.545C563.174 115.317 563.907 112.541 564.746 109.398C565.584 106.255 566.422 103.164 567.26 100.126C568.203 97.0872 569.041 94.5727 569.774 92.5821L582.976 55.3362H602.463L571.66 138H551.544ZM639.755 139.886C631.793 139.886 625.297 137.738 620.268 133.442C615.344 129.042 612.882 121.603 612.882 111.126V55.3362H632.055V107.669C632.055 110.603 632.369 113.065 632.998 115.055C633.731 116.941 634.726 118.513 635.984 119.77C637.346 120.922 638.97 121.761 640.855 122.284C642.741 122.808 644.837 123.07 647.142 123.07C650.599 123.07 653.69 122.232 656.414 120.556C659.243 118.879 661.443 116.574 663.014 113.641C664.691 110.603 665.529 107.198 665.529 103.426V55.3362H684.702V138H668.829L667.258 126.999H666.157C664.272 129.514 662.019 131.766 659.4 133.757C656.885 135.643 653.952 137.109 650.599 138.157C647.351 139.31 643.737 139.886 639.755 139.886ZM737.35 139.886C731.378 139.886 726.14 139.257 721.635 138C717.129 136.638 713.358 134.805 710.319 132.5C707.281 130.195 704.976 127.523 703.404 124.485C701.938 121.342 701.204 117.936 701.204 114.27C701.204 113.746 701.204 113.274 701.204 112.855C701.309 112.436 701.361 112.122 701.361 111.912H720.22C720.22 112.122 720.22 112.331 720.22 112.541C720.22 112.75 720.22 112.96 720.22 113.169C720.325 115.998 721.215 118.303 722.892 120.084C724.568 121.761 726.768 122.965 729.492 123.699C732.216 124.432 735.098 124.799 738.136 124.799C740.86 124.799 743.427 124.537 745.836 124.013C748.351 123.385 750.394 122.442 751.966 121.184C753.642 119.822 754.48 118.094 754.48 115.998C754.48 113.274 753.432 111.179 751.337 109.712C749.241 108.245 746.465 107.04 743.008 106.097C739.655 105.155 736.04 104.159 732.164 103.111C728.707 102.169 725.249 101.121 721.792 99.9684C718.334 98.8159 715.191 97.3491 712.362 95.568C709.638 93.7869 707.386 91.482 705.605 88.6532C703.928 85.8244 703.09 82.3146 703.09 78.1238C703.09 74.0377 703.981 70.4755 705.762 67.4372C707.543 64.3989 710.005 61.8844 713.148 59.8937C716.291 57.7983 720.011 56.2268 724.306 55.1791C728.602 54.1314 733.264 53.6075 738.293 53.6075C743.217 53.6075 747.67 54.1314 751.651 55.1791C755.737 56.2268 759.247 57.7459 762.181 59.7366C765.219 61.6224 767.524 63.9798 769.095 66.8086C770.772 69.5326 771.61 72.5709 771.61 75.9236C771.61 76.657 771.558 77.3904 771.453 78.1238C771.453 78.8572 771.453 79.2762 771.453 79.381H752.751V78.2809C752.751 76.2903 752.123 74.614 750.865 73.2519C749.713 71.7852 747.984 70.6327 745.679 69.7945C743.479 68.9564 740.703 68.5373 737.35 68.5373C734.836 68.5373 732.635 68.7468 730.75 69.1659C728.864 69.585 727.292 70.1612 726.035 70.8946C724.882 71.628 723.992 72.4662 723.363 73.4091C722.735 74.352 722.42 75.3997 722.42 76.5522C722.42 78.5428 723.206 80.1144 724.778 81.2669C726.349 82.4193 728.445 83.4147 731.064 84.2528C733.788 85.091 736.721 85.9815 739.865 86.9245C743.636 87.9722 747.513 89.0723 751.494 90.2247C755.475 91.2724 759.142 92.6345 762.495 94.3108C765.952 95.9871 768.729 98.3444 770.824 101.383C772.92 104.421 773.967 108.455 773.967 113.484C773.967 118.303 773.024 122.442 771.138 125.899C769.357 129.252 766.791 131.976 763.438 134.071C760.19 136.062 756.313 137.529 751.808 138.471C747.408 139.414 742.589 139.886 737.35 139.886Z" fill="white"/>
</svg>
